<svg width="198" height="58" viewBox="0 0 198 58" fill="none" xmlns="http://www.w3.org/2000/svg">
<path d="M0 8.39081C0 3.75669 3.75669 0 8.39081 0H48.6667C53.3008 0 57.0575 3.75669 57.0575 8.39081V48.6667C57.0575 53.3008 53.3008 57.0575 48.6667 57.0575H8.39081C3.75669 57.0575 0 53.3008 0 48.6667V8.39081Z" fill="#A0F4B1"/>
<path d="M6.25118 20.0784C10.1403 20.177 13.8016 20.8478 17.2022 22.7252C17.3679 14.8143 23.7876 11.0006 29.0336 11.3101C34.6385 11.6403 39.5237 15.817 39.7532 22.4538C41.495 21.8798 43.2471 21.171 45.0648 20.7423C46.6667 20.3637 48.3445 20.3032 49.9862 20.0923C50.5506 20.0197 50.7353 20.3257 50.7629 20.8132C51.0667 26.0531 50.1173 30.9698 47.1535 35.4128C43.8081 40.4314 39.1629 43.5743 33.3473 44.9193C31.4416 45.3602 29.4081 45.5452 27.4558 45.438C22.6207 45.1735 18.2172 43.6228 14.423 40.4781C11.9131 38.3966 9.84513 35.9694 8.42619 33.0461C7.18333 30.4771 6.32368 27.7663 6.25809 24.8706C6.22356 23.3182 6.25118 21.764 6.25118 20.0784ZM28.4225 36.6748C30.2367 30.6966 33.6632 26.2398 38.9316 23.0623H17.8978C23.2111 26.2225 26.5893 30.7157 28.4225 36.6748Z" fill="#123F42"/>
<path d="M83.322 55.2078C75.5164 55.6694 69.5463 49.166 69.8469 41.5696C70.1443 34.0854 75.737 28.6653 83.1173 28.7198C91.2811 28.7775 96.5125 34.018 96.6085 42.0792C96.6948 49.3519 91.4474 55.3553 83.3188 55.2078H83.322ZM75.6187 42.1529C75.7019 46.7941 79.0914 50.0827 83.1461 50.0218C88.2433 49.9448 90.5616 46.5826 90.8814 42.0536C91.1852 37.7393 87.4055 34.1623 83.2868 34.0501C78.938 33.9315 75.4876 38.0566 75.6187 42.1529Z" fill="#123F42"/>
<path d="M177.517 2.04908V27.0339C177.43 27.1204 177.341 27.207 177.255 27.2967H173.091C173.005 27.2102 172.918 27.1204 172.829 27.0339C172.65 26.0178 172.468 24.9985 172.279 23.9248C171.572 26.6524 169.804 27.8031 166.945 27.7166C164.387 27.6397 162.468 26.7133 160.767 24.8158C157.915 21.6331 158.081 14.9149 160.85 11.6456C162.59 9.591 164.745 8.86341 167.655 9.26727C170.063 9.60061 171.217 10.5622 171.831 12.6648C171.873 12.809 171.93 12.9469 171.982 13.0879C172.157 13.0302 172.33 12.9725 172.506 12.9148V2.04588L172.768 1.78305C174.262 1.78305 175.758 1.78305 177.251 1.78305C177.338 1.86959 177.424 1.95934 177.514 2.04588L177.517 2.04908ZM164.147 18.4054C164.147 20.6683 164.764 21.7997 166.427 22.5562C167.956 23.2517 169.507 23.0305 170.61 21.9215C172.803 19.7195 172.468 16.1168 170.041 14.3315C169.359 13.8315 168.202 13.6841 167.322 13.8059C165.138 14.1072 163.856 16.1874 164.15 18.4054H164.147Z" fill="#123F42"/>
<path d="M193.198 14.1296V9.52367H197.918V27.239H193.326V22.3093C193.045 22.8318 192.943 22.944 192.917 23.0754C191.763 28.5531 187.209 28.6589 183.589 27.1396C180.98 26.0466 179.778 23.8222 179.365 21.2548C178.863 18.1457 178.774 14.9758 180.785 12.2321C182.86 9.39867 186.205 8.06209 189.738 9.07494C191.772 9.65829 192.591 11.1391 192.911 13.0526C192.962 13.3571 192.971 13.668 193.01 13.9757C193.016 14.0142 193.09 14.0431 193.202 14.1296H193.198ZM192.271 18.4663C192.274 15.9854 191.395 14.5783 189.409 13.8892C187.916 13.3732 186.346 13.87 185.233 15.3828C184.085 16.947 183.772 18.9406 185.249 21.2869C186.17 22.7453 187.871 23.3607 189.527 22.8062C190.906 22.3446 192.642 20.1234 192.271 18.4631V18.4663Z" fill="#123F42"/>
<path d="M104.648 9.732V27.0338C104.561 27.1204 104.472 27.2069 104.385 27.2967H100.222C100.136 27.2101 100.049 27.1204 99.9597 27.0338V22.6299C99.1858 23.9312 98.5943 25.6011 97.4527 26.7037C94.6931 29.3737 88.7389 27.7198 87.0505 24.2229C85.2886 20.5689 85.0104 16.7098 86.9162 13.1231C89.145 8.94031 92.6753 8.1358 97.1809 9.72559C98.7893 10.2929 98.8373 11.9468 99.2594 13.2994C99.3521 13.5975 99.3873 13.9148 99.4512 14.2225C99.6207 14.2129 99.787 14.2065 99.9565 14.1969V9.732C100.043 9.64546 100.132 9.55892 100.219 9.46917C101.606 9.46917 102.994 9.46917 104.382 9.46917C104.468 9.55572 104.555 9.64546 104.644 9.732H104.648ZM98.9492 18.2451C98.9492 15.8796 97.0594 13.6328 95.016 13.5783C92.9311 13.5238 90.9645 15.7514 90.9581 18.1682C90.9517 21.0785 92.4898 22.8702 94.9936 22.8638C97.3823 22.8606 98.9428 21.0337 98.946 18.2451H98.9492Z" fill="#123F42"/>
<path d="M76.2677 17.0335V27.2518H70.918V1.83109H86.3789V6.45944H76.3541V12.2257H84.7832V17.0303H76.2645L76.2677 17.0335Z" fill="#123F42"/>
<path d="M174.373 49.5731C174.373 50.2173 174.258 51.1917 174.399 52.1276C174.642 53.7142 173.951 54.4546 172.48 54.7175C169.18 55.3072 165.909 55.7816 162.683 54.2751C159.638 52.852 158.081 50.5539 157.713 47.1884C157.272 43.1402 158.465 39.9061 161.934 37.765C164.959 35.8995 168.272 36.0085 171.272 37.6881C174.201 39.3291 175.032 42.3196 174.997 45.5377C174.991 46.0409 174.767 46.5441 174.604 47.2012H163.552C163.834 49.1468 165.206 50.4769 167.063 50.3712C169.459 50.2333 171.844 49.8615 174.373 49.5731ZM169.583 43.9543C169.152 42.0824 167.789 40.7202 166.577 40.8132C164.995 40.9318 163.674 42.3324 163.639 43.9543H169.583Z" fill="#123F42"/>
<path d="M138.671 19.6138H127.3C127.441 23.1844 132.563 23.8703 137.888 21.7164V26.5947C134.121 27.8672 130.328 28.3672 126.456 26.7294C123.444 25.4537 121.826 23.0209 121.387 19.9888C120.751 15.5752 122.654 10.7353 127.655 9.33778C132.352 8.02364 136.995 9.58138 138.361 14.8508C138.738 16.3028 138.578 17.8958 138.674 19.6138H138.671ZM127.14 16.3316H133.475C132.72 14.229 131.758 13.3187 130.325 13.2738C129.126 13.2353 127.76 14.5399 127.14 16.3316Z" fill="#123F42"/>
<path d="M140.267 9.45318H145.22V13.5559C145.978 12.3635 146.534 10.7801 147.644 9.90191C149.655 8.30891 152.175 8.70636 154.369 9.53651C156.402 10.3058 157.346 12.2642 157.4 14.3828C157.512 18.6394 157.432 22.9023 157.432 27.255H151.999C151.999 23.9408 152.044 20.601 151.973 17.2643C151.948 16.0688 151.849 14.7803 150.439 14.2129C148.216 13.3187 145.917 15.7963 145.923 17.7451C145.933 20.8862 145.923 24.0242 145.923 27.2582H140.26V9.45318H140.267Z" fill="#123F42"/>
<path d="M104.699 54.8456H99.3617V37.0534H104.305V41.2202C104.823 40.108 105.162 39.2394 105.626 38.4413C105.895 37.9829 106.301 37.4508 106.764 37.281C111.634 35.5149 116.121 36.7585 116.476 42.5888C116.722 46.6178 116.524 50.6756 116.524 54.804H110.771C110.771 51.2942 110.726 47.7909 110.797 44.2908C110.819 43.1049 110.576 42.0343 109.406 41.8164C108.523 41.6529 107.382 41.858 106.617 42.3292C105.265 43.1626 104.695 44.5985 104.702 46.2204C104.711 49.0442 104.702 51.8648 104.702 54.8424L104.699 54.8456Z" fill="#123F42"/>
<path d="M138.351 37.031H143.199V41.5696C143.557 40.6401 143.886 39.6368 144.328 38.6849C144.958 37.3226 146.157 36.6944 147.577 36.6559C149.857 36.5983 152.488 36.0566 153.87 38.4701C154.778 40.0599 155.325 42.0279 155.446 43.8645C155.686 47.4672 155.517 51.0987 155.517 54.8008H149.764C149.764 51.5122 149.7 48.2236 149.789 44.9351C149.841 42.9767 149.482 41.9734 147.794 41.5664C146.537 41.2619 144.555 42.5824 144.034 44.0985C143.819 44.7235 143.717 45.4126 143.707 46.0761C143.672 48.9512 143.691 51.8231 143.691 54.7912H138.351V37.0278V37.031Z" fill="#123F42"/>
<path d="M119.795 9.51721C121.138 13.1808 118.737 15.3571 116.735 17.6874C115.312 19.3445 113.866 20.9823 112.248 22.835H120.604V27.271H106.505C105.524 24.194 106.822 21.9118 108.859 19.79C110.602 17.9758 112.197 16.0206 113.982 13.9885H106.723V9.51401H119.795V9.51721Z" fill="#123F42"/>
<path d="M127.984 50.0795V54.6534C125.097 55.7271 121.298 55.5668 120.105 53.4418C119.45 52.2751 118.848 50.8904 118.823 49.5923C118.695 42.8805 118.765 36.1688 118.765 29.3641H124.518V33.1174C124.518 38.0246 124.633 42.935 124.473 47.8358C124.384 50.634 125.557 50.7526 127.984 50.0795Z" fill="#123F42"/>
<path d="M129.43 37.0182H135V54.8233H129.43V37.0182Z" fill="#123F42"/>
<path d="M132.231 35.0341C130.376 35.0437 129.04 33.8738 128.992 32.2007C128.94 30.3801 130.066 29.2775 131.985 29.2679C134.345 29.2583 135.345 30.0949 135.384 32.1109C135.416 33.7392 134.028 35.0213 132.231 35.0309V35.0341Z" fill="#123F42"/>
</svg>
