<svg width="231" height="29" viewBox="0 0 231 29" fill="none" xmlns="http://www.w3.org/2000/svg">
<path d="M0 4.26471C0 1.90937 1.90937 0 4.26471 0H24.7353C27.0906 0 29 1.90937 29 4.26471V24.7353C29 27.0906 27.0906 29 24.7353 29H4.26471C1.90937 29 0 27.0906 0 24.7353V4.26471Z" fill="#A0F4B1"/>
<path d="M3.17719 10.2051C5.15388 10.2551 7.01475 10.5961 8.74314 11.5503C8.82737 7.52951 12.0903 5.59117 14.7565 5.74845C17.6053 5.91627 20.0882 8.03914 20.2049 11.4124C21.0902 11.1206 21.9807 10.7604 22.9046 10.5425C23.7187 10.35 24.5715 10.3193 25.4059 10.2121C25.6928 10.1752 25.7867 10.3307 25.8007 10.5785C25.9551 13.2417 25.4726 15.7407 23.9662 17.9989C22.2658 20.5497 19.9049 22.1471 16.9491 22.8307C15.9805 23.0547 14.9469 23.1488 13.9546 23.0943C11.4972 22.9598 9.25903 22.1717 7.3306 20.5734C6.05492 19.5155 5.00385 18.2818 4.28266 16.796C3.65096 15.4903 3.21404 14.1125 3.1807 12.6407C3.16315 11.8517 3.17719 11.0618 3.17719 10.2051ZM14.446 18.6403C15.3681 15.6019 17.1096 13.3366 19.7873 11.7216H9.09672C11.7972 13.3279 13.5142 15.6115 14.446 18.6403Z" fill="#123F42"/>
<path d="M121.513 4.74307V24.4874C121.445 24.5558 121.374 24.6242 121.306 24.6951H118.016C117.947 24.6267 117.879 24.5558 117.808 24.4874C117.667 23.6844 117.523 22.879 117.374 22.0304C116.815 24.186 115.418 25.0953 113.159 25.0269C111.137 24.9661 109.621 24.2341 108.276 22.7346C106.022 20.2194 106.154 14.9103 108.342 12.3267C109.717 10.7031 111.42 10.1281 113.72 10.4473C115.622 10.7107 116.535 11.4706 117.02 13.1322C117.053 13.2462 117.098 13.3551 117.139 13.4665C117.278 13.4209 117.414 13.3753 117.553 13.3298V4.74054L117.76 4.53284C118.94 4.53284 120.123 4.53284 121.303 4.53284C121.371 4.60123 121.44 4.67215 121.51 4.74054L121.513 4.74307ZM110.948 17.6687C110.948 19.4569 111.435 20.3511 112.749 20.9489C113.957 21.4985 115.183 21.3237 116.055 20.4473C117.788 18.7072 117.523 15.8602 115.605 14.4493C115.067 14.0542 114.152 13.9377 113.457 14.0339C111.731 14.272 110.718 15.9159 110.95 17.6687H110.948Z" fill="#123F42"/>
<path d="M133.905 14.2897V10.6499H137.635V24.6495H134.006V20.7538C133.784 21.1667 133.703 21.2553 133.683 21.3592C132.771 25.688 129.172 25.7716 126.312 24.5709C124.249 23.7072 123.299 21.9493 122.973 19.9205C122.577 17.4635 122.506 14.9584 124.095 12.7902C125.735 10.5511 128.379 9.49486 131.171 10.2953C132.778 10.7563 133.425 11.9265 133.678 13.4387C133.718 13.6793 133.726 13.925 133.756 14.1681C133.761 14.1985 133.819 14.2213 133.908 14.2897H133.905ZM133.172 17.7168C133.175 15.7563 132.48 14.6443 130.911 14.0998C129.731 13.6919 128.49 14.0846 127.61 15.2801C126.703 16.5162 126.456 18.0917 127.623 19.9458C128.351 21.0983 129.695 21.5846 131.004 21.1464C132.093 20.7817 133.465 19.0263 133.172 17.7143V17.7168Z" fill="#123F42"/>
<path d="M63.9275 10.8145V24.4874C63.8593 24.5558 63.7885 24.6242 63.7203 24.6951H60.4302C60.3619 24.6267 60.2937 24.5558 60.223 24.4874V21.0071C59.6114 22.0355 59.1439 23.3551 58.2418 24.2265C56.061 26.3364 51.3557 25.0294 50.0215 22.266C48.6291 19.3784 48.4092 16.3288 49.9153 13.4944C51.6766 10.1889 54.4665 9.55314 58.027 10.8095C59.2981 11.2578 59.336 12.5648 59.6695 13.6337C59.7428 13.8693 59.7706 14.12 59.8212 14.3632C59.9551 14.3556 60.0865 14.3505 60.2204 14.3429V10.8145C60.2887 10.7462 60.3594 10.6778 60.4276 10.6068C61.5244 10.6068 62.6211 10.6068 63.7178 10.6068C63.786 10.6752 63.8542 10.7462 63.925 10.8145H63.9275ZM59.4244 17.542C59.4244 15.6727 57.931 13.8971 56.3162 13.8541C54.6686 13.811 53.1145 15.5714 53.1095 17.4813C53.1044 19.7812 54.3199 21.1971 56.2985 21.192C58.1862 21.1895 59.4194 19.7457 59.4219 17.542H59.4244Z" fill="#123F42"/>
<path d="M41.5004 16.5846V24.6596H37.2727V4.57082H49.4907V8.22839H41.5686V12.7852H48.2298V16.582H41.4978L41.5004 16.5846Z" fill="#123F42"/>
<path d="M90.8147 18.6236H81.8287C81.9399 21.4453 85.9881 21.9874 90.1956 20.2852V24.1404C87.2188 25.1459 84.2218 25.5411 81.1616 24.2467C78.7812 23.2386 77.5025 21.3161 77.1563 18.92C76.6534 15.4321 78.157 11.6074 82.1092 10.503C85.8214 9.46449 89.4906 10.6955 90.5696 14.8597C90.8678 16.0071 90.7414 17.266 90.8172 18.6236H90.8147ZM81.7024 16.0299H86.7083C86.112 14.3683 85.3513 13.6489 84.2192 13.6134C83.2716 13.5831 82.1926 14.614 81.7024 16.0299Z" fill="#123F42"/>
<path d="M92.0755 10.5942H95.9898V13.8363C96.5887 12.8941 97.0284 11.6428 97.9053 10.9488C99.4948 9.6899 101.486 10.004 103.22 10.66C104.827 11.2679 105.572 12.8156 105.615 14.4898C105.704 17.8536 105.64 21.2224 105.64 24.6621H101.347C101.347 22.0431 101.382 19.4037 101.327 16.7669C101.307 15.8222 101.228 14.8039 100.114 14.3556C98.3576 13.6489 96.5407 15.6069 96.5458 17.1469C96.5533 19.6292 96.5458 22.1089 96.5458 24.6647H92.0704V10.5942H92.0755Z" fill="#123F42"/>
<path d="M75.8982 10.6448C76.9595 13.5399 75.0617 15.2598 73.4798 17.1013C72.3553 18.4108 71.2131 19.7051 69.9344 21.1692H76.5375V24.6748H65.396C64.6202 22.2431 65.6461 20.4397 67.2558 18.7629C68.633 17.3292 69.894 15.7841 71.3041 14.1782H65.5678V10.6423H75.8982V10.6448Z" fill="#123F42"/>
<path d="M158.145 25.2879C151.976 25.6526 147.258 20.5133 147.496 14.5102C147.731 8.59579 152.15 4.31258 157.983 4.35564C164.434 4.40123 168.568 8.5426 168.644 14.913C168.712 20.6602 164.566 25.4044 158.142 25.2879H158.145ZM152.057 14.9712C152.123 18.6389 154.801 21.2377 158.006 21.1896C162.034 21.1288 163.866 18.4717 164.118 14.8927C164.358 11.4833 161.372 8.65658 158.117 8.56792C154.68 8.47421 151.953 11.7341 152.057 14.9712Z" fill="#123F42"/>
<path d="M230.098 20.835C230.098 21.3441 230.007 22.1141 230.118 22.8537C230.31 24.1075 229.765 24.6926 228.602 24.9003C225.994 25.3664 223.409 25.7413 220.859 24.5508C218.454 23.4262 217.223 21.6101 216.932 18.9505C216.584 15.7514 217.526 13.1956 220.268 11.5036C222.659 10.0294 225.277 10.1156 227.647 11.4428C229.962 12.7397 230.619 15.1029 230.591 17.646C230.586 18.0437 230.409 18.4413 230.28 18.9606H221.547C221.769 20.4981 222.853 21.5493 224.321 21.4657C226.214 21.3568 228.099 21.0629 230.098 20.835ZM226.313 16.3947C225.972 14.9155 224.895 13.839 223.937 13.9124C222.686 14.0062 221.643 15.1131 221.615 16.3947H226.313Z" fill="#123F42"/>
<path d="M175.037 25.0017H170.82V10.9413H174.726V14.2341C175.136 13.3552 175.404 12.6688 175.77 12.0381C175.982 11.6758 176.303 11.2554 176.67 11.1211C180.518 9.72548 184.064 10.7083 184.344 15.3157C184.539 18.4996 184.382 21.7063 184.382 24.9687H179.836C179.836 22.1952 179.801 19.4267 179.856 16.6607C179.874 15.7235 179.682 14.8775 178.757 14.7052C178.059 14.5761 177.157 14.7382 176.553 15.1105C175.484 15.7691 175.035 16.9038 175.04 18.1855C175.047 20.417 175.04 22.646 175.04 24.9991L175.037 25.0017Z" fill="#123F42"/>
<path d="M201.632 10.9235H205.463V14.5102C205.746 13.7756 206.006 12.9828 206.355 12.2305C206.852 11.154 207.8 10.6576 208.922 10.6272C210.724 10.5816 212.804 10.1535 213.895 12.0608C214.613 13.3172 215.045 14.8724 215.141 16.3238C215.331 19.1708 215.197 22.0406 215.197 24.9662H210.651C210.651 22.3674 210.6 19.7686 210.671 17.1698C210.711 15.6222 210.428 14.8293 209.094 14.5077C208.101 14.267 206.534 15.3106 206.122 16.5087C205.953 17.0026 205.872 17.5472 205.864 18.0715C205.837 20.3436 205.852 22.6131 205.852 24.9586H201.632V10.921V10.9235Z" fill="#123F42"/>
<path d="M193.439 21.2352V24.8497C191.157 25.6982 188.155 25.5716 187.212 23.8923C186.694 22.9703 186.219 21.876 186.199 20.8502C186.098 15.5462 186.154 10.2422 186.154 4.86478H190.7V7.83085C190.7 11.7088 190.791 15.5893 190.664 19.4621C190.593 21.6734 191.521 21.7671 193.439 21.2352Z" fill="#123F42"/>
<path d="M194.581 10.9135H198.983V24.984H194.581V10.9135Z" fill="#123F42"/>
<path d="M196.795 9.34554C195.329 9.35314 194.273 8.42862 194.235 7.10642C194.194 5.66771 195.084 4.79638 196.6 4.78878C198.465 4.78118 199.256 5.44228 199.286 7.0355C199.312 8.32223 198.215 9.33541 196.795 9.34301V9.34554Z" fill="#123F42"/>
</svg>
